<?xml version="1.0" encoding="UTF-8"?>
<svg xmlns="http://www.w3.org/2000/svg" xmlns:xlink="http://www.w3.org/1999/xlink" width="409" zoomAndPan="magnify" viewBox="0 0 306.75 81.749997" height="109" preserveAspectRatio="xMidYMid meet" version="1.0">
  <defs>
    <g></g>
    <clipPath id="50bebdb23f">
      <path d="M 254.945312 8.71875 L 286.9375 8.71875 L 286.9375 40.710938 L 254.945312 40.710938 Z M 254.945312 8.71875 " clip-rule="nonzero"></path>
    </clipPath>
    <clipPath id="7e80eaf70a">
      <path d="M 270.941406 8.71875 C 262.105469 8.71875 254.945312 15.878906 254.945312 24.714844 C 254.945312 33.546875 262.105469 40.710938 270.941406 40.710938 C 279.773438 40.710938 286.9375 33.546875 286.9375 24.714844 C 286.9375 15.878906 279.773438 8.71875 270.941406 8.71875 Z M 270.941406 8.71875 " clip-rule="nonzero"></path>
    </clipPath>
  </defs>
  <g clip-path="url(#50bebdb23f)">
    <g clip-path="url(#7e80eaf70a)">
      <path fill="#35384b" d="M 254.945312 8.71875 L 286.9375 8.71875 L 286.9375 40.710938 L 254.945312 40.710938 Z M 254.945312 8.71875 " fill-opacity="1" fill-rule="nonzero"></path>
    </g>
  </g>
  <g fill="#38b6ff" fill-opacity="1">
    <g transform="translate(260.789751, 28.157982)">
      <g>
        <path d="M 6.171875 -1.453125 L 6.171875 0 L 0.359375 0 L 0.359375 -1.15625 L 3.328125 -3.953125 C 3.640625 -4.253906 3.847656 -4.507812 3.953125 -4.71875 C 4.066406 -4.9375 4.125 -5.148438 4.125 -5.359375 C 4.125 -5.671875 4.019531 -5.90625 3.8125 -6.0625 C 3.601562 -6.226562 3.296875 -6.3125 2.890625 -6.3125 C 2.554688 -6.3125 2.253906 -6.25 1.984375 -6.125 C 1.710938 -6 1.488281 -5.804688 1.3125 -5.546875 L 0.015625 -6.390625 C 0.304688 -6.828125 0.71875 -7.171875 1.25 -7.421875 C 1.78125 -7.679688 2.382812 -7.8125 3.0625 -7.8125 C 3.632812 -7.8125 4.132812 -7.71875 4.5625 -7.53125 C 4.988281 -7.34375 5.316406 -7.078125 5.546875 -6.734375 C 5.785156 -6.398438 5.90625 -6.003906 5.90625 -5.546875 C 5.90625 -5.117188 5.816406 -4.722656 5.640625 -4.359375 C 5.472656 -3.992188 5.132812 -3.578125 4.625 -3.109375 L 2.859375 -1.453125 Z M 6.171875 -1.453125 "></path>
      </g>
    </g>
  </g>
  <g fill="#38b6ff" fill-opacity="1">
    <g transform="translate(266.981228, 28.157982)">
      <g>
        <path d="M 7.453125 -1.609375 L 6.203125 -1.609375 L 6.203125 0 L 4.46875 0 L 4.46875 -1.609375 L 0.34375 -1.609375 L 0.34375 -2.8125 L 3.953125 -7.671875 L 5.828125 -7.671875 L 2.46875 -3.0625 L 4.53125 -3.0625 L 4.53125 -4.5 L 6.203125 -4.5 L 6.203125 -3.0625 L 7.453125 -3.0625 Z M 7.453125 -1.609375 "></path>
      </g>
    </g>
  </g>
  <g fill="#38b6ff" fill-opacity="1">
    <g transform="translate(274.257618, 28.157982)">
      <g>
        <path d="M 6.4375 -7.671875 L 6.4375 -6.53125 L 3.59375 0 L 1.65625 0 L 4.40625 -6.234375 L 1.859375 -6.234375 L 1.859375 -4.984375 L 0.28125 -4.984375 L 0.28125 -7.671875 Z M 6.4375 -7.671875 "></path>
      </g>
    </g>
  </g>
  <g fill="#332c54" fill-opacity="1">
    <g transform="translate(82.836938, 73.226649)">
      <g>
        <path d="M 6.859375 -1.421875 L 6.859375 0 L 0.90625 0 L 0.90625 -7.671875 L 6.71875 -7.671875 L 6.71875 -6.25 L 2.671875 -6.25 L 2.671875 -4.578125 L 6.234375 -4.578125 L 6.234375 -3.203125 L 2.671875 -3.203125 L 2.671875 -1.421875 Z M 6.859375 -1.421875 "></path>
      </g>
    </g>
  </g>
  <g fill="#332c54" fill-opacity="1">
    <g transform="translate(89.916074, 73.226649)">
      <g>
        <path d="M 8.296875 -7.671875 L 4.96875 0 L 3.21875 0 L -0.09375 -7.671875 L 1.828125 -7.671875 L 4.15625 -2.1875 L 6.53125 -7.671875 Z M 8.296875 -7.671875 "></path>
      </g>
    </g>
  </g>
  <g fill="#332c54" fill-opacity="1">
    <g transform="translate(97.817117, 73.226649)">
      <g>
        <path d="M 6.859375 -1.421875 L 6.859375 0 L 0.90625 0 L 0.90625 -7.671875 L 6.71875 -7.671875 L 6.71875 -6.25 L 2.671875 -6.25 L 2.671875 -4.578125 L 6.234375 -4.578125 L 6.234375 -3.203125 L 2.671875 -3.203125 L 2.671875 -1.421875 Z M 6.859375 -1.421875 "></path>
      </g>
    </g>
  </g>
  <g fill="#332c54" fill-opacity="1">
    <g transform="translate(104.896253, 73.226649)">
      <g>
        <path d="M 5.796875 0 L 4.328125 -2.140625 L 2.6875 -2.140625 L 2.6875 0 L 0.90625 0 L 0.90625 -7.671875 L 4.234375 -7.671875 C 4.910156 -7.671875 5.5 -7.554688 6 -7.328125 C 6.5 -7.109375 6.882812 -6.789062 7.15625 -6.375 C 7.425781 -5.957031 7.5625 -5.460938 7.5625 -4.890625 C 7.5625 -4.316406 7.425781 -3.820312 7.15625 -3.40625 C 6.882812 -3 6.492188 -2.6875 5.984375 -2.46875 L 7.71875 0 Z M 5.765625 -4.890625 C 5.765625 -5.328125 5.625 -5.660156 5.34375 -5.890625 C 5.070312 -6.117188 4.671875 -6.234375 4.140625 -6.234375 L 2.6875 -6.234375 L 2.6875 -3.546875 L 4.140625 -3.546875 C 4.671875 -3.546875 5.070312 -3.660156 5.34375 -3.890625 C 5.625 -4.128906 5.765625 -4.460938 5.765625 -4.890625 Z M 5.765625 -4.890625 "></path>
      </g>
    </g>
  </g>
  <g fill="#332c54" fill-opacity="1">
    <g transform="translate(112.676746, 73.226649)">
      <g>
        <path d="M 4.59375 -2.71875 L 4.59375 0 L 2.8125 0 L 2.8125 -2.734375 L -0.15625 -7.671875 L 1.734375 -7.671875 L 3.78125 -4.265625 L 5.828125 -7.671875 L 7.578125 -7.671875 Z M 4.59375 -2.71875 "></path>
      </g>
    </g>
  </g>
  <g fill="#332c54" fill-opacity="1">
    <g transform="translate(119.810679, 73.226649)">
      <g></g>
    </g>
  </g>
  <g fill="#332c54" fill-opacity="1">
    <g transform="translate(122.637834, 73.226649)">
      <g>
        <path d="M 7.953125 -7.671875 L 7.953125 0 L 6.171875 0 L 6.171875 -3.140625 L 2.6875 -3.140625 L 2.6875 0 L 0.90625 0 L 0.90625 -7.671875 L 2.6875 -7.671875 L 2.6875 -4.65625 L 6.171875 -4.65625 L 6.171875 -7.671875 Z M 7.953125 -7.671875 "></path>
      </g>
    </g>
  </g>
  <g fill="#332c54" fill-opacity="1">
    <g transform="translate(131.218319, 73.226649)">
      <g>
        <path d="M 4.625 0.125 C 3.832031 0.125 3.113281 -0.046875 2.46875 -0.390625 C 1.832031 -0.734375 1.332031 -1.203125 0.96875 -1.796875 C 0.601562 -2.398438 0.421875 -3.082031 0.421875 -3.84375 C 0.421875 -4.59375 0.601562 -5.269531 0.96875 -5.875 C 1.332031 -6.476562 1.832031 -6.953125 2.46875 -7.296875 C 3.113281 -7.640625 3.832031 -7.8125 4.625 -7.8125 C 5.425781 -7.8125 6.144531 -7.640625 6.78125 -7.296875 C 7.414062 -6.953125 7.914062 -6.476562 8.28125 -5.875 C 8.644531 -5.269531 8.828125 -4.59375 8.828125 -3.84375 C 8.828125 -3.082031 8.644531 -2.398438 8.28125 -1.796875 C 7.914062 -1.203125 7.414062 -0.734375 6.78125 -0.390625 C 6.144531 -0.046875 5.425781 0.125 4.625 0.125 Z M 4.625 -1.375 C 5.082031 -1.375 5.492188 -1.476562 5.859375 -1.6875 C 6.222656 -1.894531 6.507812 -2.1875 6.71875 -2.5625 C 6.925781 -2.9375 7.03125 -3.363281 7.03125 -3.84375 C 7.03125 -4.3125 6.925781 -4.734375 6.71875 -5.109375 C 6.507812 -5.484375 6.222656 -5.773438 5.859375 -5.984375 C 5.492188 -6.191406 5.082031 -6.296875 4.625 -6.296875 C 4.175781 -6.296875 3.769531 -6.191406 3.40625 -5.984375 C 3.039062 -5.773438 2.753906 -5.484375 2.546875 -5.109375 C 2.335938 -4.734375 2.234375 -4.3125 2.234375 -3.84375 C 2.234375 -3.363281 2.335938 -2.9375 2.546875 -2.5625 C 2.753906 -2.1875 3.039062 -1.894531 3.40625 -1.6875 C 3.769531 -1.476562 4.175781 -1.375 4.625 -1.375 Z M 4.625 -1.375 "></path>
      </g>
    </g>
  </g>
  <g fill="#332c54" fill-opacity="1">
    <g transform="translate(140.19331, 73.226649)">
      <g>
        <path d="M 4.328125 0.125 C 3.222656 0.125 2.363281 -0.175781 1.75 -0.78125 C 1.144531 -1.382812 0.84375 -2.25 0.84375 -3.375 L 0.84375 -7.671875 L 2.625 -7.671875 L 2.625 -3.4375 C 2.625 -2.0625 3.191406 -1.375 4.328125 -1.375 C 4.890625 -1.375 5.316406 -1.539062 5.609375 -1.875 C 5.898438 -2.207031 6.046875 -2.726562 6.046875 -3.4375 L 6.046875 -7.671875 L 7.796875 -7.671875 L 7.796875 -3.375 C 7.796875 -2.25 7.488281 -1.382812 6.875 -0.78125 C 6.269531 -0.175781 5.421875 0.125 4.328125 0.125 Z M 4.328125 0.125 "></path>
      </g>
    </g>
  </g>
  <g fill="#332c54" fill-opacity="1">
    <g transform="translate(148.554611, 73.226649)">
      <g>
        <path d="M 5.796875 0 L 4.328125 -2.140625 L 2.6875 -2.140625 L 2.6875 0 L 0.90625 0 L 0.90625 -7.671875 L 4.234375 -7.671875 C 4.910156 -7.671875 5.5 -7.554688 6 -7.328125 C 6.5 -7.109375 6.882812 -6.789062 7.15625 -6.375 C 7.425781 -5.957031 7.5625 -5.460938 7.5625 -4.890625 C 7.5625 -4.316406 7.425781 -3.820312 7.15625 -3.40625 C 6.882812 -3 6.492188 -2.6875 5.984375 -2.46875 L 7.71875 0 Z M 5.765625 -4.890625 C 5.765625 -5.328125 5.625 -5.660156 5.34375 -5.890625 C 5.070312 -6.117188 4.671875 -6.234375 4.140625 -6.234375 L 2.6875 -6.234375 L 2.6875 -3.546875 L 4.140625 -3.546875 C 4.671875 -3.546875 5.070312 -3.660156 5.34375 -3.890625 C 5.625 -4.128906 5.765625 -4.460938 5.765625 -4.890625 Z M 5.765625 -4.890625 "></path>
      </g>
    </g>
  </g>
  <g fill="#332c54" fill-opacity="1">
    <g transform="translate(156.335103, 73.226649)">
      <g></g>
    </g>
  </g>
  <g fill="#332c54" fill-opacity="1">
    <g transform="translate(159.162258, 73.226649)">
      <g>
        <path d="M 6.859375 -1.421875 L 6.859375 0 L 0.90625 0 L 0.90625 -7.671875 L 6.71875 -7.671875 L 6.71875 -6.25 L 2.671875 -6.25 L 2.671875 -4.578125 L 6.234375 -4.578125 L 6.234375 -3.203125 L 2.671875 -3.203125 L 2.671875 -1.421875 Z M 6.859375 -1.421875 "></path>
      </g>
    </g>
  </g>
  <g fill="#332c54" fill-opacity="1">
    <g transform="translate(166.241393, 73.226649)">
      <g>
        <path d="M 8.296875 -7.671875 L 4.96875 0 L 3.21875 0 L -0.09375 -7.671875 L 1.828125 -7.671875 L 4.15625 -2.1875 L 6.53125 -7.671875 Z M 8.296875 -7.671875 "></path>
      </g>
    </g>
  </g>
  <g fill="#332c54" fill-opacity="1">
    <g transform="translate(174.142435, 73.226649)">
      <g>
        <path d="M 6.859375 -1.421875 L 6.859375 0 L 0.90625 0 L 0.90625 -7.671875 L 6.71875 -7.671875 L 6.71875 -6.25 L 2.671875 -6.25 L 2.671875 -4.578125 L 6.234375 -4.578125 L 6.234375 -3.203125 L 2.671875 -3.203125 L 2.671875 -1.421875 Z M 6.859375 -1.421875 "></path>
      </g>
    </g>
  </g>
  <g fill="#332c54" fill-opacity="1">
    <g transform="translate(181.221576, 73.226649)">
      <g>
        <path d="M 5.796875 0 L 4.328125 -2.140625 L 2.6875 -2.140625 L 2.6875 0 L 0.90625 0 L 0.90625 -7.671875 L 4.234375 -7.671875 C 4.910156 -7.671875 5.5 -7.554688 6 -7.328125 C 6.5 -7.109375 6.882812 -6.789062 7.15625 -6.375 C 7.425781 -5.957031 7.5625 -5.460938 7.5625 -4.890625 C 7.5625 -4.316406 7.425781 -3.820312 7.15625 -3.40625 C 6.882812 -3 6.492188 -2.6875 5.984375 -2.46875 L 7.71875 0 Z M 5.765625 -4.890625 C 5.765625 -5.328125 5.625 -5.660156 5.34375 -5.890625 C 5.070312 -6.117188 4.671875 -6.234375 4.140625 -6.234375 L 2.6875 -6.234375 L 2.6875 -3.546875 L 4.140625 -3.546875 C 4.671875 -3.546875 5.070312 -3.660156 5.34375 -3.890625 C 5.625 -4.128906 5.765625 -4.460938 5.765625 -4.890625 Z M 5.765625 -4.890625 "></path>
      </g>
    </g>
  </g>
  <g fill="#332c54" fill-opacity="1">
    <g transform="translate(189.002068, 73.226649)">
      <g>
        <path d="M 4.59375 -2.71875 L 4.59375 0 L 2.8125 0 L 2.8125 -2.734375 L -0.15625 -7.671875 L 1.734375 -7.671875 L 3.78125 -4.265625 L 5.828125 -7.671875 L 7.578125 -7.671875 Z M 4.59375 -2.71875 "></path>
      </g>
    </g>
  </g>
  <g fill="#332c54" fill-opacity="1">
    <g transform="translate(196.136002, 73.226649)">
      <g></g>
    </g>
  </g>
  <g fill="#332c54" fill-opacity="1">
    <g transform="translate(198.963156, 73.226649)">
      <g>
        <path d="M 0.90625 -7.671875 L 4.40625 -7.671875 C 5.238281 -7.671875 5.972656 -7.507812 6.609375 -7.1875 C 7.242188 -6.875 7.738281 -6.425781 8.09375 -5.84375 C 8.445312 -5.269531 8.625 -4.601562 8.625 -3.84375 C 8.625 -3.070312 8.445312 -2.394531 8.09375 -1.8125 C 7.738281 -1.238281 7.242188 -0.789062 6.609375 -0.46875 C 5.972656 -0.15625 5.238281 0 4.40625 0 L 0.90625 0 Z M 4.3125 -1.453125 C 5.082031 -1.453125 5.691406 -1.664062 6.140625 -2.09375 C 6.597656 -2.519531 6.828125 -3.101562 6.828125 -3.84375 C 6.828125 -4.570312 6.597656 -5.148438 6.140625 -5.578125 C 5.691406 -6.003906 5.082031 -6.21875 4.3125 -6.21875 L 2.6875 -6.21875 L 2.6875 -1.453125 Z M 4.3125 -1.453125 "></path>
      </g>
    </g>
  </g>
  <g fill="#332c54" fill-opacity="1">
    <g transform="translate(207.740893, 73.226649)">
      <g>
        <path d="M 5.96875 -1.640625 L 2.40625 -1.640625 L 1.71875 0 L -0.09375 0 L 3.328125 -7.671875 L 5.078125 -7.671875 L 8.515625 0 L 6.640625 0 Z M 5.40625 -3 L 4.1875 -5.9375 L 2.96875 -3 Z M 5.40625 -3 "></path>
      </g>
    </g>
  </g>
  <g fill="#332c54" fill-opacity="1">
    <g transform="translate(215.861106, 73.226649)">
      <g>
        <path d="M 4.59375 -2.71875 L 4.59375 0 L 2.8125 0 L 2.8125 -2.734375 L -0.15625 -7.671875 L 1.734375 -7.671875 L 3.78125 -4.265625 L 5.828125 -7.671875 L 7.578125 -7.671875 Z M 4.59375 -2.71875 "></path>
      </g>
    </g>
  </g>
  <g fill="#35384b" fill-opacity="1">
    <g transform="translate(47.131933, 56.411005)">
      <g>
        <path d="M 2.796875 -34 L 11.5 -34 L 11.5 0 L 2.796875 0 Z M 2.796875 -34 "></path>
      </g>
    </g>
  </g>
  <g fill="#35384b" fill-opacity="1">
    <g transform="translate(57.76471, 56.411005)">
      <g>
        <path d="M 15.265625 0.40625 C 12.609375 0.40625 10.207031 -0.140625 8.0625 -1.234375 C 5.925781 -2.335938 4.253906 -3.863281 3.046875 -5.8125 C 1.835938 -7.769531 1.234375 -9.988281 1.234375 -12.46875 C 1.234375 -14.90625 1.835938 -17.101562 3.046875 -19.0625 C 4.253906 -21.019531 5.921875 -22.539062 8.046875 -23.625 C 10.171875 -24.707031 12.578125 -25.25 15.265625 -25.25 C 17.953125 -25.25 20.363281 -24.707031 22.5 -23.625 C 24.632812 -22.539062 26.296875 -21.023438 27.484375 -19.078125 C 28.679688 -17.140625 29.28125 -14.9375 29.28125 -12.46875 C 29.28125 -9.988281 28.679688 -7.769531 27.484375 -5.8125 C 26.296875 -3.863281 24.632812 -2.335938 22.5 -1.234375 C 20.363281 -0.140625 17.953125 0.40625 15.265625 0.40625 Z M 15.265625 -6.5 C 16.785156 -6.5 18.035156 -7.023438 19.015625 -8.078125 C 19.992188 -9.140625 20.484375 -10.601562 20.484375 -12.46875 C 20.484375 -14.300781 19.992188 -15.734375 19.015625 -16.765625 C 18.035156 -17.804688 16.785156 -18.328125 15.265625 -18.328125 C 13.734375 -18.328125 12.476562 -17.804688 11.5 -16.765625 C 10.519531 -15.734375 10.03125 -14.300781 10.03125 -12.46875 C 10.03125 -10.601562 10.519531 -9.140625 11.5 -8.078125 C 12.476562 -7.023438 13.734375 -6.5 15.265625 -6.5 Z M 15.265625 -6.5 "></path>
      </g>
    </g>
  </g>
  <g fill="#35384b" fill-opacity="1">
    <g transform="translate(84.576371, 56.411005)">
      <g>
        <path d="M 15.484375 0.40625 C 12.734375 0.40625 10.273438 -0.140625 8.109375 -1.234375 C 5.941406 -2.335938 4.253906 -3.863281 3.046875 -5.8125 C 1.835938 -7.769531 1.234375 -9.988281 1.234375 -12.46875 C 1.234375 -14.9375 1.835938 -17.140625 3.046875 -19.078125 C 4.253906 -21.023438 5.941406 -22.539062 8.109375 -23.625 C 10.273438 -24.707031 12.734375 -25.25 15.484375 -25.25 C 18.296875 -25.25 20.722656 -24.644531 22.765625 -23.4375 C 24.816406 -22.226562 26.269531 -20.554688 27.125 -18.421875 L 20.390625 -14.984375 C 19.265625 -17.210938 17.613281 -18.328125 15.4375 -18.328125 C 13.882812 -18.328125 12.59375 -17.804688 11.5625 -16.765625 C 10.539062 -15.734375 10.03125 -14.300781 10.03125 -12.46875 C 10.03125 -10.601562 10.539062 -9.140625 11.5625 -8.078125 C 12.59375 -7.023438 13.882812 -6.5 15.4375 -6.5 C 17.613281 -6.5 19.265625 -7.617188 20.390625 -9.859375 L 27.125 -6.421875 C 26.269531 -4.273438 24.816406 -2.597656 22.765625 -1.390625 C 20.722656 -0.191406 18.296875 0.40625 15.484375 0.40625 Z M 15.484375 0.40625 "></path>
      </g>
    </g>
  </g>
  <g fill="#35384b" fill-opacity="1">
    <g transform="translate(108.50058, 56.411005)">
      <g>
        <path d="M 13.375 -25.25 C 17.5 -25.25 20.644531 -24.304688 22.8125 -22.421875 C 24.988281 -20.546875 26.078125 -17.671875 26.078125 -13.796875 L 26.078125 0 L 17.96875 0 L 17.96875 -3.203125 C 16.707031 -0.796875 14.257812 0.40625 10.625 0.40625 C 8.707031 0.40625 7.046875 0.0703125 5.640625 -0.59375 C 4.234375 -1.269531 3.171875 -2.179688 2.453125 -3.328125 C 1.734375 -4.472656 1.375 -5.773438 1.375 -7.234375 C 1.375 -9.585938 2.273438 -11.414062 4.078125 -12.71875 C 5.878906 -14.019531 8.660156 -14.671875 12.421875 -14.671875 L 17.375 -14.671875 C 17.21875 -17.296875 15.457031 -18.609375 12.09375 -18.609375 C 10.90625 -18.609375 9.695312 -18.414062 8.46875 -18.03125 C 7.25 -17.644531 6.210938 -17.117188 5.359375 -16.453125 L 2.421875 -22.359375 C 3.796875 -23.273438 5.46875 -23.984375 7.4375 -24.484375 C 9.414062 -24.992188 11.394531 -25.25 13.375 -25.25 Z M 13.0625 -5.09375 C 14.070312 -5.09375 14.957031 -5.332031 15.71875 -5.8125 C 16.476562 -6.300781 17.03125 -7.019531 17.375 -7.96875 L 17.375 -10.125 L 13.609375 -10.125 C 11.078125 -10.125 9.8125 -9.285156 9.8125 -7.609375 C 9.8125 -6.847656 10.097656 -6.238281 10.671875 -5.78125 C 11.253906 -5.320312 12.050781 -5.09375 13.0625 -5.09375 Z M 13.0625 -5.09375 "></path>
      </g>
    </g>
  </g>
  <g fill="#35384b" fill-opacity="1">
    <g transform="translate(133.570603, 56.411005)">
      <g>
        <path d="M 2.796875 -34 L 11.5 -34 L 11.5 0 L 2.796875 0 Z M 2.796875 -34 "></path>
      </g>
    </g>
  </g>
  <g fill="#38b6ff" fill-opacity="1">
    <g transform="translate(144.206156, 56.411005)">
      <g>
        <path d="M 2.796875 -34 L 11.5 -34 L 11.5 0 L 2.796875 0 Z M 2.796875 -34 "></path>
      </g>
    </g>
  </g>
  <g fill="#38b6ff" fill-opacity="1">
    <g transform="translate(154.838933, 56.411005)">
      <g>
        <path d="M 28.1875 -12.375 C 28.1875 -12.3125 28.140625 -11.59375 28.046875 -10.21875 L 9.984375 -10.21875 C 10.359375 -8.9375 11.070312 -7.953125 12.125 -7.265625 C 13.175781 -6.578125 14.492188 -6.234375 16.078125 -6.234375 C 17.273438 -6.234375 18.304688 -6.398438 19.171875 -6.734375 C 20.046875 -7.066406 20.925781 -7.617188 21.8125 -8.390625 L 26.390625 -3.625 C 23.984375 -0.9375 20.457031 0.40625 15.8125 0.40625 C 12.90625 0.40625 10.351562 -0.140625 8.15625 -1.234375 C 5.957031 -2.335938 4.253906 -3.863281 3.046875 -5.8125 C 1.835938 -7.769531 1.234375 -9.988281 1.234375 -12.46875 C 1.234375 -14.90625 1.820312 -17.09375 3 -19.03125 C 4.175781 -20.976562 5.800781 -22.5 7.875 -23.59375 C 9.957031 -24.695312 12.296875 -25.25 14.890625 -25.25 C 17.367188 -25.25 19.613281 -24.738281 21.625 -23.71875 C 23.644531 -22.695312 25.242188 -21.210938 26.421875 -19.265625 C 27.597656 -17.328125 28.1875 -15.03125 28.1875 -12.375 Z M 14.9375 -19.0625 C 13.59375 -19.0625 12.46875 -18.675781 11.5625 -17.90625 C 10.664062 -17.144531 10.097656 -16.109375 9.859375 -14.796875 L 20.03125 -14.796875 C 19.78125 -16.109375 19.203125 -17.144531 18.296875 -17.90625 C 17.398438 -18.675781 16.28125 -19.0625 14.9375 -19.0625 Z M 14.9375 -19.0625 "></path>
      </g>
    </g>
  </g>
  <g fill="#38b6ff" fill-opacity="1">
    <g transform="translate(180.550609, 56.411005)">
      <g>
        <path d="M 13.375 -25.25 C 17.5 -25.25 20.644531 -24.304688 22.8125 -22.421875 C 24.988281 -20.546875 26.078125 -17.671875 26.078125 -13.796875 L 26.078125 0 L 17.96875 0 L 17.96875 -3.203125 C 16.707031 -0.796875 14.257812 0.40625 10.625 0.40625 C 8.707031 0.40625 7.046875 0.0703125 5.640625 -0.59375 C 4.234375 -1.269531 3.171875 -2.179688 2.453125 -3.328125 C 1.734375 -4.472656 1.375 -5.773438 1.375 -7.234375 C 1.375 -9.585938 2.273438 -11.414062 4.078125 -12.71875 C 5.878906 -14.019531 8.660156 -14.671875 12.421875 -14.671875 L 17.375 -14.671875 C 17.21875 -17.296875 15.457031 -18.609375 12.09375 -18.609375 C 10.90625 -18.609375 9.695312 -18.414062 8.46875 -18.03125 C 7.25 -17.644531 6.210938 -17.117188 5.359375 -16.453125 L 2.421875 -22.359375 C 3.796875 -23.273438 5.46875 -23.984375 7.4375 -24.484375 C 9.414062 -24.992188 11.394531 -25.25 13.375 -25.25 Z M 13.0625 -5.09375 C 14.070312 -5.09375 14.957031 -5.332031 15.71875 -5.8125 C 16.476562 -6.300781 17.03125 -7.019531 17.375 -7.96875 L 17.375 -10.125 L 13.609375 -10.125 C 11.078125 -10.125 9.8125 -9.285156 9.8125 -7.609375 C 9.8125 -6.847656 10.097656 -6.238281 10.671875 -5.78125 C 11.253906 -5.320312 12.050781 -5.09375 13.0625 -5.09375 Z M 13.0625 -5.09375 "></path>
      </g>
    </g>
  </g>
  <g fill="#38b6ff" fill-opacity="1">
    <g transform="translate(205.620633, 56.411005)">
      <g>
        <path d="M 29.1875 -34 L 29.1875 0 L 20.890625 0 L 20.890625 -2.46875 C 19.273438 -0.550781 16.847656 0.40625 13.609375 0.40625 C 11.347656 0.40625 9.285156 -0.117188 7.421875 -1.171875 C 5.554688 -2.222656 4.082031 -3.722656 3 -5.671875 C 1.914062 -7.628906 1.375 -9.894531 1.375 -12.46875 C 1.375 -15.03125 1.914062 -17.28125 3 -19.21875 C 4.082031 -21.164062 5.554688 -22.65625 7.421875 -23.6875 C 9.285156 -24.726562 11.347656 -25.25 13.609375 -25.25 C 16.578125 -25.25 18.867188 -24.394531 20.484375 -22.6875 L 20.484375 -34 Z M 15.4375 -6.5 C 16.9375 -6.5 18.175781 -7.023438 19.15625 -8.078125 C 20.132812 -9.140625 20.625 -10.601562 20.625 -12.46875 C 20.625 -14.300781 20.140625 -15.734375 19.171875 -16.765625 C 18.210938 -17.804688 16.96875 -18.328125 15.4375 -18.328125 C 13.914062 -18.328125 12.664062 -17.804688 11.6875 -16.765625 C 10.707031 -15.734375 10.21875 -14.300781 10.21875 -12.46875 C 10.21875 -10.601562 10.707031 -9.140625 11.6875 -8.078125 C 12.664062 -7.023438 13.914062 -6.5 15.4375 -6.5 Z M 15.4375 -6.5 "></path>
      </g>
    </g>
  </g>
  <g fill="#38b6ff" fill-opacity="1">
    <g transform="translate(233.898935, 56.411005)">
      <g>
        <path d="M 11.828125 0.40625 C 9.742188 0.40625 7.691406 0.171875 5.671875 -0.296875 C 3.660156 -0.773438 2.046875 -1.394531 0.828125 -2.15625 L 3.4375 -8.109375 C 4.5625 -7.410156 5.90625 -6.851562 7.46875 -6.4375 C 9.03125 -6.019531 10.570312 -5.8125 12.09375 -5.8125 C 13.5 -5.8125 14.5 -5.957031 15.09375 -6.25 C 15.695312 -6.539062 16 -6.960938 16 -7.515625 C 16 -8.066406 15.640625 -8.457031 14.921875 -8.6875 C 14.203125 -8.914062 13.0625 -9.132812 11.5 -9.34375 C 9.519531 -9.59375 7.832031 -9.914062 6.4375 -10.3125 C 5.050781 -10.707031 3.851562 -11.4375 2.84375 -12.5 C 1.832031 -13.570312 1.328125 -15.070312 1.328125 -17 C 1.328125 -18.59375 1.800781 -20.003906 2.75 -21.234375 C 3.695312 -22.472656 5.078125 -23.453125 6.890625 -24.171875 C 8.710938 -24.890625 10.890625 -25.25 13.421875 -25.25 C 15.222656 -25.25 17.007812 -25.066406 18.78125 -24.703125 C 20.5625 -24.335938 22.046875 -23.816406 23.234375 -23.140625 L 20.625 -17.234375 C 18.425781 -18.453125 16.039062 -19.0625 13.46875 -19.0625 C 12.09375 -19.0625 11.082031 -18.898438 10.4375 -18.578125 C 9.800781 -18.265625 9.484375 -17.847656 9.484375 -17.328125 C 9.484375 -16.742188 9.832031 -16.335938 10.53125 -16.109375 C 11.238281 -15.878906 12.398438 -15.640625 14.015625 -15.390625 C 16.066406 -15.085938 17.765625 -14.738281 19.109375 -14.34375 C 20.453125 -13.945312 21.617188 -13.222656 22.609375 -12.171875 C 23.609375 -11.117188 24.109375 -9.644531 24.109375 -7.75 C 24.109375 -6.1875 23.632812 -4.785156 22.6875 -3.546875 C 21.738281 -2.316406 20.335938 -1.347656 18.484375 -0.640625 C 16.640625 0.0546875 14.421875 0.40625 11.828125 0.40625 Z M 11.828125 0.40625 "></path>
      </g>
    </g>
  </g>
</svg>
